#Comment line ignore any data following # character 
#Hierarchical Translation and Rotation (.htr) file 
[Header]	
#Header keywords are followed by a single value 
FileType HTR		#Single word string
DataType HTRS		#Translation followed by rotation and scale data
FileVersion 1		#integer
NumSegments 84		#integer
NumFrames 2		#integer
DataFrameRate 30		#integer, data frame rate in this file
EulerRotationOrder ZYX
CalibrationUnits mm
RotationUnits Degrees
GlobalAxisofGravity Y
BoneLengthAxis Y
ScaleFactor 1.00
[SegmentNames&Hierarchy]
#CHILD	PARENT
MASTER GLOBAL
root MASTER
chest root
L_mid_tent01 root
R_mid_tent01 root
spine01 root
Bip01_Neck chest
L_humerus chest
R_humerus chest
weapon_bone chest
Bip01_Head Bip01_Neck
eye_left_bone Bip01_Head
eye_right_bone Bip01_Head
L_forearm L_humerus
L_front_hand L_forearm
L_weapon_bone L_forearm
L_front_hand01_01 L_front_hand
L_front_hand02_01 L_front_hand
L_front_hand03_01 L_front_hand
L_front_hand01_02 L_front_hand01_01
L_front_hand02_02 L_front_hand02_01
L_front_hand03_02 L_front_hand03_01
R_forearm R_humerus
R_front_hand R_forearm
R_weapon_bone R_forearm
R_front_hand01_01 R_front_hand
R_front_hand02_01 R_front_hand
R_front_hand03_01 R_front_hand
R_front_hand01_02 R_front_hand01_01
R_front_hand02_02 R_front_hand02_01
R_front_hand03_02 R_front_hand03_01
null_rope01_connect L_mid_tent01
Rope1_Seg01 null_rope01_connect
Rope1_Seg02 Rope1_Seg01
Rope1_Seg03 Rope1_Seg02
Rope1_Seg04 Rope1_Seg03
Rope1_Seg05 Rope1_Seg04
Rope1_Seg06 Rope1_Seg05
Rope1_Seg07 Rope1_Seg06
Rope1_Seg09 Rope1_Seg07
L_mid_hand01 Rope1_Seg09
L_mid_hand02 Rope1_Seg09
L_mid_hand03 Rope1_Seg09
null_rope02_connect R_mid_tent01
Rope2_Seg01 null_rope02_connect
Rope2_Seg02 Rope2_Seg01
Rope2_Seg03 Rope2_Seg02
Rope2_Seg04 Rope2_Seg03
Rope2_Seg05 Rope2_Seg04
Rope2_Seg06 Rope2_Seg05
Rope2_Seg07 Rope2_Seg06
Rope2_Seg09 Rope2_Seg07
R_mid_hand01 Rope2_Seg09
R_mid_hand02 Rope2_Seg09
R_mid_hand03 Rope2_Seg09
spine02 spine01
spine03 spine02
pelvis spine03
null_rope03_connect pelvis
null_rope04_connect pelvis
Rope3_Seg01 null_rope03_connect
Rope3_Seg02 Rope3_Seg01
Rope3_Seg03 Rope3_Seg02
Rope3_Seg04 Rope3_Seg03
Rope3_Seg05 Rope3_Seg04
Rope3_Seg06 Rope3_Seg05
Rope3_Seg07 Rope3_Seg06
Rope3_Seg08 Rope3_Seg07
Rope3_Seg09 Rope3_Seg08
R_rear_hand01 Rope3_Seg09
R_rear_hand02 Rope3_Seg09
R_rear_hand03 Rope3_Seg09
Rope4_Seg01 null_rope04_connect
Rope4_Seg02 Rope4_Seg01
Rope4_Seg03 Rope4_Seg02
Rope4_Seg04 Rope4_Seg03
Rope4_Seg05 Rope4_Seg04
Rope4_Seg06 Rope4_Seg05
Rope4_Seg07 Rope4_Seg06
Rope4_Seg08 Rope4_Seg07
Rope4_Seg09 Rope4_Seg08
L_rear_hand01 Rope4_Seg09
L_rear_hand02 Rope4_Seg09
L_rear_hand03 Rope4_Seg09
[BasePosition]
#SegmentName Tx, Ty, Tz, Rx, Ry, Rz, BoneLength
MASTER 0.000000 0.000000 0.000000 -90.000000 0.000000 0.000000 10.000000 
root 0.000000 0.000000 0.000000 0.000000 0.000000 0.000000 10.000000 
chest 0.000000 0.000000 0.000000 0.000000 0.000000 0.000000 10.000000 
L_mid_tent01 0.000000 0.000000 0.000000 0.000000 0.000000 0.000000 10.000000 
R_mid_tent01 0.000000 0.000000 0.000000 0.000000 0.000000 0.000000 10.000000 
spine01 0.000000 0.000000 0.000000 0.000000 0.000000 0.000000 10.000000 
Bip01_Neck 0.000000 0.000000 0.000000 0.000000 0.000000 0.000000 10.000000 
L_humerus 0.000000 0.000000 0.000000 0.000000 0.000000 0.000000 10.000000 
R_humerus 0.000000 0.000000 0.000000 0.000000 0.000000 0.000000 10.000000 
weapon_bone 0.000000 0.000000 0.000000 0.000000 0.000000 0.000000 10.000000 
Bip01_Head 0.000000 0.000000 0.000000 0.000000 0.000000 0.000000 10.000000 
eye_left_bone 0.000000 0.000000 0.000000 0.000000 0.000000 0.000000 10.000000 
eye_right_bone 0.000000 0.000000 0.000000 0.000000 0.000000 0.000000 10.000000 
L_forearm 0.000000 0.000000 0.000000 0.000000 0.000000 0.000000 10.000000 
L_front_hand 0.000000 0.000000 0.000000 0.000000 0.000000 0.000000 10.000000 
L_weapon_bone 0.000000 0.000000 0.000000 0.000000 0.000000 0.000000 10.000000 
L_front_hand01_01 0.000000 0.000000 0.000000 0.000000 0.000000 0.000000 10.000000 
L_front_hand02_01 0.000000 0.000000 0.000000 0.000000 0.000000 0.000000 10.000000 
L_front_hand03_01 0.000000 0.000000 0.000000 0.000000 0.000000 0.000000 10.000000 
L_front_hand01_02 0.000000 0.000000 0.000000 0.000000 0.000000 0.000000 10.000000 
L_front_hand02_02 0.000000 0.000000 0.000000 0.000000 0.000000 0.000000 10.000000 
L_front_hand03_02 0.000000 0.000000 0.000000 0.000000 0.000000 0.000000 10.000000 
R_forearm 0.000000 0.000000 0.000000 0.000000 0.000000 0.000000 10.000000 
R_front_hand 0.000000 0.000000 0.000000 0.000000 0.000000 0.000000 10.000000 
R_weapon_bone 0.000000 0.000000 0.000000 0.000000 0.000000 0.000000 10.000000 
R_front_hand01_01 0.000000 0.000000 0.000000 0.000000 0.000000 0.000000 10.000000 
R_front_hand02_01 0.000000 0.000000 0.000000 0.000000 0.000000 0.000000 10.000000 
R_front_hand03_01 0.000000 0.000000 0.000000 0.000000 0.000000 0.000000 10.000000 
R_front_hand01_02 0.000000 0.000000 0.000000 0.000000 0.000000 0.000000 10.000000 
R_front_hand02_02 0.000000 0.000000 0.000000 0.000000 0.000000 0.000000 10.000000 
R_front_hand03_02 0.000000 0.000000 0.000000 0.000000 0.000000 0.000000 10.000000 
null_rope01_connect 0.000000 0.000000 0.000000 0.000000 0.000000 0.000000 10.000000 
Rope1_Seg01 0.000000 0.000000 0.000000 0.000000 0.000000 0.000000 10.000000 
Rope1_Seg02 0.000000 0.000000 0.000000 0.000000 0.000000 0.000000 10.000000 
Rope1_Seg03 0.000000 0.000000 0.000000 0.000000 0.000000 0.000000 10.000000 
Rope1_Seg04 0.000000 0.000000 0.000000 0.000000 0.000000 0.000000 10.000000 
Rope1_Seg05 0.000000 0.000000 0.000000 0.000000 0.000000 0.000000 10.000000 
Rope1_Seg06 0.000000 0.000000 0.000000 0.000000 0.000000 0.000000 10.000000 
Rope1_Seg07 0.000000 0.000000 0.000000 0.000000 0.000000 0.000000 10.000000 
Rope1_Seg09 0.000000 0.000000 0.000000 0.000000 0.000000 0.000000 10.000000 
L_mid_hand01 0.000000 0.000000 0.000000 0.000000 0.000000 0.000000 10.000000 
L_mid_hand02 0.000000 0.000000 0.000000 0.000000 0.000000 0.000000 10.000000 
L_mid_hand03 0.000000 0.000000 0.000000 0.000000 0.000000 0.000000 10.000000 
null_rope02_connect 0.000000 0.000000 0.000000 0.000000 0.000000 0.000000 10.000000 
Rope2_Seg01 0.000000 0.000000 0.000000 0.000000 0.000000 0.000000 10.000000 
Rope2_Seg02 0.000000 0.000000 0.000000 0.000000 0.000000 0.000000 10.000000 
Rope2_Seg03 0.000000 0.000000 0.000000 0.000000 0.000000 0.000000 10.000000 
Rope2_Seg04 0.000000 0.000000 0.000000 0.000000 0.000000 0.000000 10.000000 
Rope2_Seg05 0.000000 0.000000 0.000000 0.000000 0.000000 0.000000 10.000000 
Rope2_Seg06 0.000000 0.000000 0.000000 0.000000 0.000000 0.000000 10.000000 
Rope2_Seg07 0.000000 0.000000 0.000000 0.000000 0.000000 0.000000 10.000000 
Rope2_Seg09 0.000000 0.000000 0.000000 0.000000 0.000000 0.000000 10.000000 
R_mid_hand01 0.000000 0.000000 0.000000 0.000000 0.000000 0.000000 10.000000 
R_mid_hand02 0.000000 0.000000 0.000000 0.000000 0.000000 0.000000 10.000000 
R_mid_hand03 0.000000 0.000000 0.000000 0.000000 0.000000 0.000000 10.000000 
spine02 0.000000 0.000000 0.000000 0.000000 0.000000 0.000000 10.000000 
spine03 0.000000 0.000000 0.000000 0.000000 0.000000 0.000000 10.000000 
pelvis 0.000000 0.000000 0.000000 0.000000 0.000000 0.000000 10.000000 
null_rope03_connect 0.000000 0.000000 0.000000 0.000000 0.000000 0.000000 10.000000 
null_rope04_connect 0.000000 0.000000 0.000000 0.000000 0.000000 0.000000 10.000000 
Rope3_Seg01 0.000000 0.000000 0.000000 0.000000 0.000000 0.000000 10.000000 
Rope3_Seg02 0.000000 0.000000 0.000000 0.000000 0.000000 0.000000 10.000000 
Rope3_Seg03 0.000000 0.000000 0.000000 0.000000 0.000000 0.000000 10.000000 
Rope3_Seg04 0.000000 0.000000 0.000000 0.000000 0.000000 0.000000 10.000000 
Rope3_Seg05 0.000000 0.000000 0.000000 0.000000 0.000000 0.000000 10.000000 
Rope3_Seg06 0.000000 0.000000 0.000000 0.000000 0.000000 0.000000 10.000000 
Rope3_Seg07 0.000000 0.000000 0.000000 0.000000 0.000000 0.000000 10.000000 
Rope3_Seg08 0.000000 0.000000 0.000000 0.000000 0.000000 0.000000 10.000000 
Rope3_Seg09 0.000000 0.000000 0.000000 0.000000 0.000000 0.000000 10.000000 
R_rear_hand01 0.000000 0.000000 0.000000 0.000000 0.000000 0.000000 10.000000 
R_rear_hand02 0.000000 0.000000 0.000000 0.000000 0.000000 0.000000 10.000000 
R_rear_hand03 0.000000 0.000000 0.000000 0.000000 0.000000 0.000000 10.000000 
Rope4_Seg01 0.000000 0.000000 0.000000 0.000000 0.000000 0.000000 10.000000 
Rope4_Seg02 0.000000 0.000000 0.000000 0.000000 0.000000 0.000000 10.000000 
Rope4_Seg03 0.000000 0.000000 0.000000 0.000000 0.000000 0.000000 10.000000 
Rope4_Seg04 0.000000 0.000000 0.000000 0.000000 0.000000 0.000000 10.000000 
Rope4_Seg05 0.000000 0.000000 0.000000 0.000000 0.000000 0.000000 10.000000 
Rope4_Seg06 0.000000 0.000000 0.000000 0.000000 0.000000 0.000000 10.000000 
Rope4_Seg07 0.000000 0.000000 0.000000 0.000000 0.000000 0.000000 10.000000 
Rope4_Seg08 0.000000 0.000000 0.000000 0.000000 0.000000 0.000000 10.000000 
Rope4_Seg09 0.000000 0.000000 0.000000 0.000000 0.000000 0.000000 10.000000 
L_rear_hand01 0.000000 0.000000 0.000000 0.000000 0.000000 0.000000 10.000000 
L_rear_hand02 0.000000 0.000000 0.000000 0.000000 0.000000 0.000000 10.000000 
L_rear_hand03 0.000000 0.000000 0.000000 0.000000 0.000000 0.000000 10.000000 
#Beginning of Data. Separated by tabs
#Fr	Tx	Ty	Tz	Rx	Ry	Rz	SF
[MASTER]
40 0.000000 0.000000 0.000000 0.001660 0.001660 0.001660 0.000000
41 0.000000 0.000000 0.000000 0.001660 0.001660 0.001660 0.000000
[root]
40 -24.045403 -51.776371 1628.573730 -90.860741 -27.722784 -89.621399 1629.573975
41 -20.103096 -57.549282 1650.242554 -91.260063 -27.693316 -89.896400 1651.368042
[chest]
40 -84.512650 -34.090519 0.000000 -0.961204 0.112092 -167.086426 91.129311
41 -84.512650 -34.090519 0.000000 -1.163432 0.182623 -169.220337 91.129311
[L_mid_tent01]
40 27.299633 22.177464 -249.918015 6.584863 39.068302 84.771225 252.380905
41 27.299629 22.177473 -249.918015 6.775544 39.249199 85.006790 252.380905
[R_mid_tent01]
40 23.228794 24.509907 226.238495 155.833511 -49.761578 92.822937 228.744751
41 23.228794 24.509907 226.238495 155.512054 -49.930164 93.160942 228.744751
[spine01]
40 -0.361383 -0.195265 0.000000 0.001894 0.001387 17.578409 0.410763
41 -0.361383 -0.195265 0.000000 0.001892 0.001390 17.403294 0.410763
[Bip01_Neck]
40 165.484543 71.581718 0.000119 175.896118 1.177290 24.871183 180.302734
41 165.484543 71.581718 0.000119 175.896118 1.177290 24.871183 180.302734
[L_humerus]
40 -13.983130 -135.272980 -120.471481 -176.373642 3.737351 -121.313560 181.680161
41 -13.983130 -135.272980 -120.471481 -177.184952 5.594298 -120.319710 181.680161
[R_humerus]
40 -13.983309 -135.273102 125.287651 -179.639572 -1.607667 -121.842201 184.909012
41 -13.983309 -135.273102 125.287651 -179.639572 -1.607667 -121.842201 184.909012
[weapon_bone]
40 235.964890 -300.705902 0.000000 0.000000 -89.951546 -128.212341 382.234833
41 235.964890 -300.705902 0.000000 0.000000 -89.951546 -128.212341 382.234833
[Bip01_Head]
40 104.188271 31.221468 5.935902 3.075946 3.437389 -20.911139 108.927551
41 107.996048 51.282776 7.344537 2.869934 3.486506 -21.131874 119.779007
[eye_left_bone]
40 -24.626970 125.451866 -64.772606 0.000000 -90.000000 -99.840431 143.318359
41 -24.626970 125.451866 -64.772606 0.000000 -90.000000 -99.840431 143.318359
[eye_right_bone]
40 -24.626970 125.451866 64.327362 0.000000 -89.960434 80.159386 143.117676
41 -24.626970 125.451866 64.327362 0.000000 -89.960434 80.159386 143.117676
[L_forearm]
40 322.776093 0.000000 -0.000119 0.000495 0.002294 -65.666412 322.776093
41 322.776093 0.000000 -0.000119 0.000486 0.002296 -66.102524 322.776093
[L_front_hand]
40 241.149185 -0.042021 -3.300071 -179.676147 -2.243070 0.302068 241.171753
41 241.149185 -0.042021 -3.300071 -179.744812 -2.252038 2.034787 241.171753
[L_weapon_bone]
40 156.183838 0.000000 0.000000 0.001797 0.001511 9.885467 156.183838
41 156.183838 0.000000 0.000000 0.001780 0.001531 8.605309 156.183838
[L_front_hand01_01]
40 86.095154 20.947098 -0.655860 0.025825 -0.600262 35.383701 88.609184
41 86.095154 20.947098 -0.655860 -0.366594 -0.477154 75.385574 88.609184
[L_front_hand02_01]
40 86.935165 -11.437475 24.513514 122.070442 -31.555796 -18.503565 91.046425
41 86.935165 -11.437475 24.513514 154.403519 -59.888931 -61.371998 91.046425
[L_front_hand03_01]
40 86.637497 -14.123976 -20.424902 -123.243645 30.082537 -20.856932 90.126129
41 86.637497 -14.123976 -20.424902 -153.913879 58.118130 -62.702892 90.126129
[L_front_hand01_02]
40 71.020905 -0.000179 0.000030 0.001534 0.001777 -8.378850 71.020905
41 71.020905 -0.000179 0.000030 0.001534 0.001777 -8.378850 71.020905
[L_front_hand02_02]
40 71.020927 -0.000119 0.000060 0.001534 0.001777 -8.378850 71.020927
41 71.020927 -0.000119 0.000060 0.001534 0.001777 -8.378850 71.020927
[L_front_hand03_02]
40 71.020905 -0.000060 0.000060 0.001534 0.001777 -8.378850 71.020905
41 71.020905 -0.000060 0.000060 0.001534 0.001777 -8.378850 71.020905
[R_forearm]
40 322.776428 -0.000060 0.000030 0.191799 -0.086654 -66.973335 322.776428
41 322.776428 -0.000060 0.000030 0.190049 -0.090045 -65.896385 322.776428
[R_front_hand]
40 238.847015 -0.006795 2.210259 -0.412095 1.678236 -2.521814 238.857239
41 238.847015 -0.006795 2.210259 -0.521233 1.647729 -6.289356 238.857239
[R_weapon_bone]
40 155.664093 0.002503 -0.000030 0.003421 0.001359 -96.948738 155.664078
41 155.664093 0.002503 -0.000030 0.003430 0.001335 -96.140266 155.664078
[R_front_hand01_01]
40 87.624611 14.231146 22.918642 -122.121788 -31.681074 18.703140 91.683487
41 87.624611 14.231146 22.918642 -154.633499 -59.950626 61.746063 91.683487
[R_front_hand02_01]
40 89.356956 14.367283 -19.491137 123.410347 30.459000 21.397940 92.579636
41 89.356956 14.367283 -19.491137 154.602676 58.302864 63.744400 92.579636
[R_front_hand03_01]
40 87.286232 -22.307278 -0.143439 -0.147788 -0.427431 -35.768772 90.091743
41 87.286232 -22.307278 -0.143439 0.162155 -0.423168 -75.767921 90.091743
[R_front_hand01_02]
40 71.020905 0.000060 0.000119 0.001777 0.001534 8.377220 71.020905
41 71.020905 0.000060 0.000119 0.001777 0.001534 8.377220 71.020905
[R_front_hand02_02]
40 71.020844 -0.000030 -0.000119 0.001777 0.001534 8.377220 71.020836
41 71.020844 -0.000030 -0.000119 0.001777 0.001534 8.377220 71.020836
[R_front_hand03_02]
40 71.020905 0.000000 0.000030 0.001777 0.001534 8.377220 71.020905
41 71.020905 0.000000 0.000030 0.001777 0.001534 8.377220 71.020905
[null_rope01_connect]
40 328.732483 0.000000 -0.000238 -137.273834 -49.898064 172.747391 328.732483
41 328.732483 0.000000 -0.000238 -137.162689 -49.116253 172.423004 328.732483
[Rope1_Seg01]
40 0.000000 0.000000 0.000000 107.685799 49.267052 129.988205 0.000000
41 0.000000 0.000000 0.000000 108.033470 48.454170 130.586761 0.000000
[Rope1_Seg02]
40 139.999863 -0.000179 0.000000 0.043703 -6.339398 2.461192 139.999863
41 139.999863 -0.000179 0.000000 0.091640 -6.418866 2.017632 139.999863
[Rope1_Seg03]
40 139.999924 0.000060 -0.000060 -0.681859 -9.995852 3.328463 139.999924
41 139.999924 0.000060 -0.000060 -0.622431 -10.064121 2.688086 139.999924
[Rope1_Seg04]
40 139.999924 -0.000060 -0.000119 -4.028299 -18.722330 2.120476 139.999924
41 139.999924 -0.000060 -0.000119 -3.621008 -18.690151 -0.284868 139.999924
[Rope1_Seg05]
40 139.999832 0.000119 -0.000060 -0.445259 -14.362027 20.853796 139.999832
41 139.999832 0.000119 -0.000060 -1.119288 -15.100135 21.157179 139.999832
[Rope1_Seg06]
40 139.999954 0.000119 -0.000060 4.982507 -3.929395 9.913697 139.999954
41 139.999954 0.000119 -0.000060 6.026875 -4.198037 11.551629 139.999954
[Rope1_Seg07]
40 139.999985 0.000060 0.000000 2.214136 -2.130434 4.275708 139.999985
41 139.999985 0.000060 0.000000 2.659612 -2.182697 4.722168 139.999985
[Rope1_Seg09]
40 121.602913 0.000119 -0.000089 -89.793175 -1.359789 0.847147 121.602913
41 121.602913 0.000119 -0.000089 -89.793175 -1.359789 0.847147 121.602913
[L_mid_hand01]
40 103.859421 1.038730 8.195221 113.367950 -51.315342 -19.171114 104.187431
41 103.859421 1.038730 8.195221 123.429825 -63.258141 -31.050232 104.187431
[L_mid_hand02]
40 105.572853 -4.139662 -10.864139 -153.542358 37.220737 -49.959301 106.211075
41 105.572853 -4.139662 -10.864139 -164.054184 42.141399 -66.337410 106.211075
[L_mid_hand03]
40 104.641464 17.579376 -3.913581 -11.549824 14.892951 55.408737 106.179977
41 104.641464 17.579376 -3.913581 -7.703855 17.161545 69.266975 106.179977
[null_rope02_connect]
40 328.732849 0.000179 -0.000119 -124.197037 36.558685 19.872959 328.732849
41 328.732849 0.000179 -0.000119 -124.229218 36.891846 20.026392 328.732849
[Rope2_Seg01]
40 0.000076 0.000111 0.000153 -60.638988 60.167412 42.117985 0.000204
41 0.000076 0.000112 0.000153 -58.422855 59.946453 44.640640 0.000204
[Rope2_Seg02]
40 139.999741 -0.000060 -0.000119 0.702111 -6.149210 0.053102 139.999756
41 139.999741 -0.000060 -0.000119 0.625858 -5.747687 -0.005000 139.999756
[Rope2_Seg03]
40 140.000107 0.000030 0.000000 0.592870 -9.420965 0.052062 140.000107
41 140.000107 0.000030 0.000000 0.533979 -8.859934 -0.019865 140.000107
[Rope2_Seg04]
40 139.999802 0.000000 -0.000060 -0.233754 -16.276756 -0.764278 139.999802
41 139.999802 0.000000 -0.000060 -0.114329 -14.674644 -1.190367 139.999802
[Rope2_Seg05]
40 139.999985 -0.000060 0.000119 -4.308987 -26.364529 5.287149 139.999985
41 139.999985 -0.000060 0.000119 -4.378898 -27.159500 5.184866 139.999985
[Rope2_Seg06]
40 139.999893 -0.000030 -0.000119 -2.089357 -8.625629 1.548244 139.999893
41 139.999893 -0.000030 -0.000119 -2.175446 -9.118713 1.663893 139.999893
[Rope2_Seg07]
40 139.999893 0.000060 -0.000060 -1.502715 -4.133823 0.407303 139.999893
41 139.999893 0.000060 -0.000060 -1.562382 -4.257455 0.401256 139.999893
[Rope2_Seg09]
40 121.338966 0.000089 -0.000060 33.793236 -1.359788 -0.847141 121.338966
41 121.338966 0.000089 -0.000060 33.793236 -1.359788 -0.847141 121.338966
[R_mid_hand01]
40 104.680779 11.144459 -10.335981 -31.189171 37.773174 48.068398 105.778534
41 104.680779 11.144459 -10.335981 -21.063530 43.563747 63.532551 105.778534
[R_mid_hand02]
40 104.070427 2.443552 8.231699 66.182884 -52.103592 19.743233 104.424065
41 104.070427 2.443552 8.231699 56.097115 -63.595886 31.579571 104.424065
[R_mid_hand03]
40 106.028137 -11.221827 -5.996406 -172.283569 13.841986 -57.762180 106.788818
41 106.028137 -11.221827 -5.996406 -175.664948 15.218536 -71.180809 106.788818
[spine02]
40 129.756927 0.001550 0.000119 -0.770276 -3.997545 2.996294 129.756927
41 129.756927 0.001550 0.000119 -0.732709 -4.005301 2.457312 129.756927
[spine03]
40 78.780281 0.058297 -3.273886 -0.270359 4.406740 -12.777470 78.848297
41 78.767471 0.060527 -3.398880 -0.215807 4.401222 -12.090541 78.840790
[pelvis]
40 169.435242 0.051022 0.000000 -2.089826 -1.228565 2.879386 169.435257
41 169.435242 0.051022 0.000000 -1.907878 -1.144718 2.464527 169.435257
[null_rope03_connect]
40 -1.257226 -2.466202 137.391083 176.912048 -86.868126 -69.805283 137.418976
41 -1.257226 -2.466202 137.391083 -174.599411 -86.735535 -77.914360 137.418976
[null_rope04_connect]
40 -1.259640 -2.480268 -137.844437 176.912048 -86.868126 -69.805283 137.872513
41 -1.259640 -2.480268 -137.844437 -174.599411 -86.735535 -77.914360 137.872513
[Rope3_Seg01]
40 0.000067 0.000038 0.000000 -141.167374 -37.318050 -64.901871 0.000077
41 0.000067 0.000035 0.000000 -141.399307 -37.868557 -64.839111 0.000076
[Rope3_Seg02]
40 139.999924 -0.000119 0.000060 -17.346809 8.451380 -30.871881 139.999924
41 139.999924 -0.000119 0.000060 -19.368811 9.366601 -32.856777 139.999924
[Rope3_Seg03]
40 139.999924 -0.000119 0.000119 -57.166531 28.418051 -47.707054 139.999924
41 139.999924 -0.000119 0.000119 -55.679230 29.539314 -45.762455 139.999924
[Rope3_Seg04]
40 139.999924 0.000119 0.000000 -13.118699 20.251204 -5.986932 139.999924
41 139.999924 0.000119 0.000000 -10.819553 17.799725 -4.427848 139.999924
[Rope3_Seg05]
40 139.999924 -0.000238 0.000060 -14.481360 28.169054 -11.052735 139.999924
41 139.999924 -0.000238 0.000060 -12.556085 24.141043 -9.585032 139.999924
[Rope3_Seg06]
40 139.999893 -0.000119 -0.000060 -5.245905 25.640741 -4.473246 139.999893
41 139.999893 -0.000119 -0.000060 -7.758013 29.790602 -7.066757 139.999893
[Rope3_Seg07]
40 139.999771 0.000060 -0.000119 0.092937 9.677463 -0.387545 139.999771
41 139.999771 0.000060 -0.000119 -0.096520 11.723287 -0.714234 139.999771
[Rope3_Seg08]
40 139.999985 -0.000060 0.000000 0.611984 4.831253 -0.200232 139.999985
41 139.999985 -0.000060 0.000000 0.648661 5.698509 -0.332499 139.999985
[Rope3_Seg09]
40 90.185997 -0.000179 -0.000060 89.793228 -1.359877 -0.847183 90.185997
41 90.185997 -0.000179 -0.000060 89.793228 -1.359877 -0.847183 90.185997
[R_rear_hand01]
40 103.366196 -6.073594 -10.757982 -158.916824 13.108990 -19.868561 104.101845
41 103.366196 -6.073594 -10.757982 -160.923370 15.932279 -27.847401 104.101845
[R_rear_hand02]
40 100.509819 12.039542 -7.992327 -36.772362 13.179154 19.981934 101.543350
41 100.509819 12.039542 -7.992327 -34.911884 17.996586 26.901737 101.543350
[R_rear_hand03]
40 101.539970 5.215704 5.435467 83.929695 -20.504236 5.996010 101.819031
41 101.539970 5.215704 5.435467 83.516991 -28.676731 6.984372 101.819031
[Rope4_Seg01]
40 0.000000 -0.000067 -0.000038 46.613331 -18.893114 -99.494919 0.000077
41 0.000000 -0.000070 -0.000035 46.523880 -19.421034 -99.148384 0.000079
[Rope4_Seg02]
40 139.999985 0.000060 0.000119 8.722162 -50.550049 15.637650 139.999985
41 139.999985 0.000060 0.000119 8.056629 -49.684708 15.978593 139.999985
[Rope4_Seg03]
40 139.999924 0.000000 -0.000238 40.073788 -44.750046 37.155464 139.999924
41 139.999924 0.000000 -0.000238 39.050758 -45.853561 38.706490 139.999924
[Rope4_Seg04]
40 139.999985 0.000000 0.000119 9.748590 -1.784843 12.009782 139.999985
41 139.999985 0.000000 0.000119 8.631937 -1.391415 10.900189 139.999985
[Rope4_Seg05]
40 139.999802 -0.000060 -0.000119 11.851690 -1.651357 19.812397 139.999802
41 139.999802 -0.000060 -0.000119 10.032758 -1.577569 16.058764 139.999802
[Rope4_Seg06]
40 139.999924 0.000000 0.000060 10.423353 3.333575 32.831093 139.999924
41 139.999924 0.000000 0.000060 11.413794 1.578711 32.323593 139.999924
[Rope4_Seg07]
40 139.999802 0.000000 0.000000 1.385677 4.342316 14.705433 139.999802
41 139.999802 0.000000 0.000000 2.370862 4.831043 18.765852 139.999802
[Rope4_Seg08]
40 139.999924 0.000000 0.000119 -1.703276 2.159533 6.815519 139.999924
41 139.999924 0.000000 0.000119 -1.683254 2.411191 8.056905 139.999924
[Rope4_Seg09]
40 90.185791 0.000060 0.000060 -135.617828 2.228885 0.850567 90.185791
41 90.185791 0.000060 0.000060 -135.617828 2.228885 0.850567 90.185791
[L_rear_hand01]
40 101.696655 -8.392275 -7.654577 -38.730453 -1.220205 175.460831 102.329041
41 101.696655 -8.392275 -7.654577 -38.679855 -2.468642 173.903595 102.329041
[L_rear_hand02]
40 102.726799 -1.568258 5.773216 84.310432 1.193118 176.019257 102.900848
41 102.726799 -1.568258 5.773216 84.303398 3.173723 175.821167 102.900848
[L_rear_hand03]
40 104.552910 9.721220 -10.420293 -155.938934 -5.590318 -178.282669 105.519653
41 104.552910 9.721220 -10.420293 -156.131668 -6.399365 -176.453522 105.519653
